<mxfile host="app.diagrams.net" modified="2024-03-07T03:55:16.961Z" agent="Mozilla/5.0 (Windows NT 10.0; Win64; x64) AppleWebKit/537.36 (KHTML, like Gecko) Chrome/115.0.0.0 Safari/537.36" version="22.1.21" etag="8m9f-dEbQhKhEP4rYvQQ" type="github">
  <diagram name="Trang-1" id="LuO48XKK4SiaCL7w0cct">
    <mxGraphModel>
      <root>
        <mxCell id="0" />
        <mxCell id="1" parent="0" />
      </root>
    </mxGraphModel>
  </diagram>
</mxfile>
